<svg id="Lager_1" data-name="Lager 1" xmlns="http://www.w3.org/2000/svg" viewBox="0 0 82 58"><path d="M8.19,0a8.13,8.13,0,0,0-8,8.22V49.75a8.16,8.16,0,0,0,8,8.25h66a8.16,8.16,0,0,0,8-8.25V8.22a8.13,8.13,0,0,0-8-8.22Zm0,4h66a3.91,3.91,0,0,1,1.66.41L43.66,35a3.36,3.36,0,0,1-4.88,0L6.53,4.41A3.91,3.91,0,0,1,8.19,4ZM4.25,7.75,27,29.34,4.63,51.72a4.52,4.52,0,0,1-.44-2V8.22c0-.16,0-.31.06-.47Zm73.88,0c0,.16.06.31.06.47V49.75a4.42,4.42,0,0,1-.44,1.94L55.41,29.31,78.13,7.75ZM52.5,32.09,74.38,54H8L29.94,32.12,36,37.88a7.56,7.56,0,0,0,10.38,0Z" transform="translate(-0.19)"/></svg>